<svg xmlns="http://www.w3.org/2000/svg" style="display:none" aria-hidden="true">
<defs>

<symbol id="f-ru" viewBox="0 0 60 40">
  <rect width="60" height="40" fill="#fff"/>
  <rect y="13.33" width="60" height="13.33" fill="#0039a6"/>
  <rect y="26.67" width="60" height="13.33" fill="#d52b1e"/>
</symbol>

<symbol id="f-en" viewBox="0 0 60 40">
  <rect width="60" height="40" fill="#012169"/>
  <path d="M0 0 L60 40 M60 0 L0 40" stroke="#fff" stroke-width="6"/>
  <path d="M0 0 L60 40 M60 0 L0 40" stroke="#c8102e" stroke-width="3"/>
  <path d="M30 0 L30 40 M0 20 L60 20" stroke="#fff" stroke-width="10"/>
  <path d="M30 0 L30 40 M0 20 L60 20" stroke="#c8102e" stroke-width="6"/>
</symbol>

<symbol id="f-ka" viewBox="0 0 60 40">
  <rect width="60" height="40" fill="#fff"/>
  <rect x="25" width="10" height="40" fill="#ff0000"/>
  <rect y="15" width="60" height="10" fill="#ff0000"/>
  <g fill="#ff0000">
    <path d="M11 8 L13 8 L13 6 L17 6 L17 8 L19 8 L19 12 L17 12 L17 14 L13 14 L13 12 L11 12 Z"/>
    <path d="M41 8 L43 8 L43 6 L47 6 L47 8 L49 8 L49 12 L47 12 L47 14 L43 14 L43 12 L41 12 Z"/>
    <path d="M11 28 L13 28 L13 26 L17 26 L17 28 L19 28 L19 32 L17 32 L17 34 L13 34 L13 32 L11 32 Z"/>
    <path d="M41 28 L43 28 L43 26 L47 26 L47 28 L49 28 L49 32 L47 32 L47 34 L43 34 L43 32 L41 32 Z"/>
  </g>
</symbol>

<symbol id="f-uk" viewBox="0 0 60 40">
  <rect width="60" height="20" fill="#0057b7"/>
  <rect y="20" width="60" height="20" fill="#ffd700"/>
</symbol>

<symbol id="f-be" viewBox="0 0 60 40">
  <rect width="60" height="40" fill="#fff"/>
  <rect width="60" height="13.33" fill="#cd1f2a"/>
  <rect y="26.67" width="60" height="13.33" fill="#007c30"/>
</symbol>

<symbol id="f-az" viewBox="0 0 60 40">
  <rect width="60" height="13.33" fill="#00b5e2"/>
  <rect y="13.33" width="60" height="13.33" fill="#ef3340"/>
  <rect y="26.67" width="60" height="13.33" fill="#509e2f"/>
  <circle cx="30" cy="20" r="5" fill="#fff"/>
  <circle cx="31.5" cy="20" r="4" fill="#ef3340"/>
  <path d="M34 17 L35.2 19 L37.5 18.5 L36 20.5 L37.5 22.5 L35.2 22 L34 24 L33.8 21.5 L32 20.5 L33.8 19.5 Z" fill="#fff"/>
</symbol>

<symbol id="f-hy" viewBox="0 0 60 40">
  <rect width="60" height="13.33" fill="#d90012"/>
  <rect y="13.33" width="60" height="13.33" fill="#0033a0"/>
  <rect y="26.67" width="60" height="13.33" fill="#f2a800"/>
</symbol>

</defs>
</svg>
