<svg xmlns="http://www.w3.org/2000/svg" style="display:none" aria-hidden="true">
<defs>
  <linearGradient id="g-warm" x1="0" y1="0" x2="1" y2="1">
    <stop offset="0" stop-color="#e6a55a"/><stop offset="1" stop-color="#c97a3a"/>
  </linearGradient>
  <linearGradient id="g-pine" x1="0" y1="0" x2="0" y2="1">
    <stop offset="0" stop-color="#5a8a52"/><stop offset="1" stop-color="#2d4a2a"/>
  </linearGradient>
  <linearGradient id="g-spring" x1="0" y1="0" x2="0" y2="1">
    <stop offset="0" stop-color="#9bc77a"/><stop offset="1" stop-color="#5a8a4a"/>
  </linearGradient>
  <linearGradient id="g-sky" x1="0" y1="0" x2="0" y2="1">
    <stop offset="0" stop-color="#bde0f2"/><stop offset="1" stop-color="#7fb8d4"/>
  </linearGradient>
</defs>

<symbol id="i-bed" viewBox="0 0 64 64">
  <path d="M6 22 L6 48 L10 48 L10 42 L54 42 L54 48 L58 48 L58 28 Q58 22 52 22 L30 22 Q24 22 24 28 L24 32 L10 32 L10 22 Z" fill="url(#g-warm)" stroke="#7a4a1a" stroke-width="1.5" stroke-linejoin="round"/>
  <ellipse cx="40" cy="29" rx="10" ry="4" fill="#fff5d8"/>
</symbol>

<symbol id="i-kitchen" viewBox="0 0 64 64">
  <rect x="8" y="14" width="48" height="40" rx="3" fill="url(#g-warm)" stroke="#7a4a1a" stroke-width="1.5"/>
  <rect x="14" y="22" width="14" height="10" fill="#fff5d8"/>
  <rect x="32" y="22" width="18" height="10" fill="#fff5d8"/>
  <circle cx="38" cy="42" r="3" fill="#3d2a1a"/>
  <circle cx="46" cy="42" r="3" fill="#3d2a1a"/>
  <line x1="14" y1="40" x2="26" y2="40" stroke="#3d2a1a" stroke-width="2" stroke-linecap="round"/>
  <line x1="14" y1="46" x2="26" y2="46" stroke="#3d2a1a" stroke-width="2" stroke-linecap="round"/>
</symbol>

<symbol id="i-sofa" viewBox="0 0 64 64">
  <path d="M8 32 Q8 24 16 24 L48 24 Q56 24 56 32 L56 44 L52 44 L52 48 L48 48 L48 44 L16 44 L16 48 L12 48 L12 44 L8 44 Z" fill="url(#g-warm)" stroke="#7a4a1a" stroke-width="1.5" stroke-linejoin="round"/>
  <rect x="18" y="28" width="12" height="12" rx="2" fill="#fff5d8"/>
  <rect x="34" y="28" width="12" height="12" rx="2" fill="#fff5d8"/>
</symbol>

<symbol id="i-bath" viewBox="0 0 64 64">
  <path d="M10 30 L54 30 L52 46 Q52 50 48 50 L16 50 Q12 50 12 46 Z" fill="url(#g-sky)" stroke="#3a6a82" stroke-width="1.5" stroke-linejoin="round"/>
  <path d="M22 30 L22 18 Q22 14 26 14 L30 14" stroke="#3a6a82" stroke-width="2.5" fill="none" stroke-linecap="round"/>
  <circle cx="32" cy="14" r="3" fill="#3a6a82"/>
  <line x1="14" y1="54" x2="14" y2="58" stroke="#3a6a82" stroke-width="2.5" stroke-linecap="round"/>
  <line x1="50" y1="54" x2="50" y2="58" stroke="#3a6a82" stroke-width="2.5" stroke-linecap="round"/>
</symbol>

<symbol id="i-flame" viewBox="0 0 64 64">
  <path d="M32 6 Q40 18 40 26 Q40 32 36 34 Q40 28 36 22 Q34 30 26 32 Q18 36 18 44 Q18 56 32 58 Q46 56 46 44 Q46 32 32 6 Z" fill="url(#g-warm)" stroke="#a85c22" stroke-width="1.2"/>
  <path d="M32 26 Q26 36 26 44 Q26 52 32 52 Q38 52 38 44 Q38 36 32 26 Z" fill="#fff5d8" opacity="0.7"/>
</symbol>

<symbol id="i-wifi" viewBox="0 0 64 64">
  <path d="M12 26 Q32 10 52 26" stroke="url(#g-pine)" stroke-width="4" fill="none" stroke-linecap="round"/>
  <path d="M18 34 Q32 22 46 34" stroke="url(#g-pine)" stroke-width="4" fill="none" stroke-linecap="round"/>
  <path d="M24 42 Q32 34 40 42" stroke="url(#g-pine)" stroke-width="4" fill="none" stroke-linecap="round"/>
  <circle cx="32" cy="50" r="4" fill="url(#g-pine)"/>
</symbol>

<symbol id="i-chair" viewBox="0 0 64 64">
  <rect x="14" y="32" width="36" height="8" rx="1" fill="url(#g-warm)" stroke="#7a4a1a" stroke-width="1.5"/>
  <rect x="14" y="14" width="36" height="6" rx="1" fill="url(#g-warm)" stroke="#7a4a1a" stroke-width="1.5"/>
  <line x1="22" y1="20" x2="22" y2="32" stroke="#7a4a1a" stroke-width="2"/>
  <line x1="32" y1="20" x2="32" y2="32" stroke="#7a4a1a" stroke-width="2"/>
  <line x1="42" y1="20" x2="42" y2="32" stroke="#7a4a1a" stroke-width="2"/>
  <line x1="18" y1="40" x2="18" y2="54" stroke="#7a4a1a" stroke-width="2.5" stroke-linecap="round"/>
  <line x1="46" y1="40" x2="46" y2="54" stroke="#7a4a1a" stroke-width="2.5" stroke-linecap="round"/>
</symbol>

<symbol id="i-bbq" viewBox="0 0 64 64">
  <path d="M14 28 L50 28 L46 42 Q46 46 42 46 L22 46 Q18 46 18 42 Z" fill="url(#g-pine)" stroke="#1a3318" stroke-width="1.5"/>
  <line x1="22" y1="36" x2="42" y2="36" stroke="#fff5d8" stroke-width="1"/>
  <line x1="22" y1="40" x2="42" y2="40" stroke="#fff5d8" stroke-width="1"/>
  <circle cx="28" cy="22" r="3" fill="#c97a3a"/>
  <circle cx="36" cy="20" r="3" fill="#c97a3a"/>
  <line x1="20" y1="46" x2="16" y2="56" stroke="#1a3318" stroke-width="2.5" stroke-linecap="round"/>
  <line x1="44" y1="46" x2="48" y2="56" stroke="#1a3318" stroke-width="2.5" stroke-linecap="round"/>
  <path d="M28 14 Q26 18 28 22 M36 12 Q34 16 36 20" stroke="#c97a3a" stroke-width="1.5" fill="none" stroke-linecap="round"/>
</symbol>

<symbol id="i-swing" viewBox="0 0 64 64">
  <path d="M10 14 L54 14" stroke="url(#g-pine)" stroke-width="3" stroke-linecap="round"/>
  <line x1="22" y1="14" x2="22" y2="38" stroke="#7a4a1a" stroke-width="2"/>
  <line x1="42" y1="14" x2="42" y2="38" stroke="#7a4a1a" stroke-width="2"/>
  <rect x="18" y="38" width="28" height="6" rx="1" fill="url(#g-warm)" stroke="#7a4a1a" stroke-width="1.5"/>
  <line x1="14" y1="14" x2="14" y2="56" stroke="url(#g-pine)" stroke-width="2.5" stroke-linecap="round"/>
  <line x1="50" y1="14" x2="50" y2="56" stroke="url(#g-pine)" stroke-width="2.5" stroke-linecap="round"/>
</symbol>

<symbol id="i-sand" viewBox="0 0 64 64">
  <path d="M8 50 Q8 36 22 36 L42 36 Q56 36 56 50 Z" fill="url(#g-warm)" stroke="#7a4a1a" stroke-width="1.5"/>
  <circle cx="20" cy="30" r="4" fill="#c33"/>
  <rect x="32" y="26" width="8" height="8" fill="#39a"/>
  <path d="M44 32 L52 32 L48 24 Z" fill="#3c3"/>
  <path d="M14 50 Q20 46 26 50" stroke="#7a4a1a" stroke-width="1" fill="none"/>
</symbol>

<symbol id="i-pine" viewBox="0 0 64 64">
  <path d="M32 6 L42 22 L36 22 L46 36 L38 36 L50 50 L14 50 L26 36 L18 36 L28 22 L22 22 Z" fill="url(#g-spring)" stroke="#1a3318" stroke-width="1.2" stroke-linejoin="round"/>
  <rect x="28" y="50" width="8" height="8" fill="#7a4a1a"/>
</symbol>

<symbol id="i-family" viewBox="0 0 64 64">
  <circle cx="22" cy="20" r="6" fill="url(#g-warm)"/>
  <path d="M14 44 Q14 30 22 30 Q30 30 30 44 Z" fill="url(#g-warm)"/>
  <circle cx="42" cy="20" r="6" fill="url(#g-pine)"/>
  <path d="M34 44 Q34 30 42 30 Q50 30 50 44 Z" fill="url(#g-pine)"/>
  <circle cx="32" cy="36" r="4" fill="url(#g-spring)"/>
  <path d="M27 52 Q27 42 32 42 Q37 42 37 52 Z" fill="url(#g-spring)"/>
</symbol>

<symbol id="i-heart" viewBox="0 0 64 64">
  <path d="M32 54 Q14 42 14 26 Q14 16 22 16 Q28 16 32 22 Q36 16 42 16 Q50 16 50 26 Q50 42 32 54 Z" fill="url(#g-warm)" stroke="#a85c22" stroke-width="1.2"/>
</symbol>

<symbol id="i-laptop" viewBox="0 0 64 64">
  <rect x="10" y="14" width="44" height="30" rx="2" fill="url(#g-pine)" stroke="#1a3318" stroke-width="1.5"/>
  <rect x="14" y="18" width="36" height="22" fill="#bde0f2"/>
  <path d="M6 46 L58 46 L54 52 L10 52 Z" fill="url(#g-pine)" stroke="#1a3318" stroke-width="1.5" stroke-linejoin="round"/>
  <path d="M18 24 L26 32 L18 32 Z" fill="#fff5d8" opacity="0.6"/>
</symbol>

<symbol id="i-sun" viewBox="0 0 64 64">
  <circle cx="32" cy="32" r="12" fill="url(#g-warm)"/>
  <g stroke="url(#g-warm)" stroke-width="3" stroke-linecap="round">
    <line x1="32" y1="6" x2="32" y2="14"/>
    <line x1="32" y1="50" x2="32" y2="58"/>
    <line x1="6" y1="32" x2="14" y2="32"/>
    <line x1="50" y1="32" x2="58" y2="32"/>
    <line x1="13" y1="13" x2="19" y2="19"/>
    <line x1="45" y1="45" x2="51" y2="51"/>
    <line x1="51" y1="13" x2="45" y2="19"/>
    <line x1="19" y1="45" x2="13" y2="51"/>
  </g>
</symbol>

<symbol id="i-flower" viewBox="0 0 64 64">
  <circle cx="32" cy="32" r="6" fill="#f4d28a"/>
  <ellipse cx="32" cy="16" rx="6" ry="10" fill="#e8a5c8"/>
  <ellipse cx="32" cy="48" rx="6" ry="10" fill="#e8a5c8"/>
  <ellipse cx="16" cy="32" rx="10" ry="6" fill="#e8a5c8"/>
  <ellipse cx="48" cy="32" rx="10" ry="6" fill="#e8a5c8"/>
  <circle cx="32" cy="32" r="6" fill="#f4b85a"/>
</symbol>

<symbol id="i-leaf" viewBox="0 0 64 64">
  <path d="M14 50 Q12 28 32 12 Q52 28 50 50 Q34 56 14 50 Z" fill="url(#g-warm)" stroke="#a85c22" stroke-width="1.5"/>
  <path d="M32 14 L32 50" stroke="#7a4a1a" stroke-width="1.5"/>
  <path d="M32 22 L40 18 M32 30 L42 28 M32 38 L42 38 M32 22 L24 18 M32 30 L22 28 M32 38 L22 38" stroke="#7a4a1a" stroke-width="1" fill="none"/>
</symbol>

<symbol id="i-snow" viewBox="0 0 64 64">
  <g stroke="#7fb8d4" stroke-width="2.5" stroke-linecap="round" fill="none">
    <line x1="32" y1="8" x2="32" y2="56"/>
    <line x1="8" y1="32" x2="56" y2="32"/>
    <line x1="15" y1="15" x2="49" y2="49"/>
    <line x1="49" y1="15" x2="15" y2="49"/>
    <path d="M32 14 L28 18 M32 14 L36 18"/>
    <path d="M32 50 L28 46 M32 50 L36 46"/>
    <path d="M14 32 L18 28 M14 32 L18 36"/>
    <path d="M50 32 L46 28 M50 32 L46 36"/>
  </g>
  <circle cx="32" cy="32" r="3" fill="#7fb8d4"/>
</symbol>

<symbol id="i-phone" viewBox="0 0 64 64">
  <path d="M14 12 Q14 8 18 8 L24 8 Q26 8 27 10 L31 22 Q32 24 30 26 L26 30 Q30 38 36 42 L40 38 Q42 36 44 37 L54 41 Q56 42 56 44 L56 50 Q56 54 52 54 Q26 54 14 28 Q10 18 14 12 Z" fill="url(#g-warm)" stroke="#a85c22" stroke-width="1.5" stroke-linejoin="round"/>
</symbol>

<symbol id="i-whatsapp" viewBox="0 0 64 64">
  <circle cx="32" cy="32" r="26" fill="#25d366"/>
  <path d="M22 24 Q22 20 26 20 L28 20 Q29 20 30 22 L32 28 Q33 30 31 31 L29 33 Q32 38 38 41 L40 39 Q41 37 43 38 L48 40 Q50 41 50 43 L50 46 Q50 50 46 50 Q34 50 26 42 Q20 36 22 24 Z" fill="#fff" stroke="none"/>
</symbol>

<symbol id="i-viber" viewBox="0 0 64 64">
  <circle cx="32" cy="32" r="26" fill="#7360f2"/>
  <ellipse cx="32" cy="30" rx="14" ry="16" fill="none" stroke="#fff" stroke-width="2"/>
  <path d="M22 22 Q22 18 26 18 L28 18 Q29 18 30 20 L32 24 Q33 26 31 27 L29 29 Q32 34 37 37 L39 35 Q40 33 42 34 L46 36 Q48 37 48 39 L48 42 Q48 46 44 46 Q34 46 26 38 Q20 32 22 22 Z" fill="#fff"/>
</symbol>

<symbol id="i-gift" viewBox="0 0 64 64">
  <rect x="10" y="26" width="44" height="28" rx="2" fill="url(#g-warm)" stroke="#7a4a1a" stroke-width="1.5"/>
  <rect x="6" y="20" width="52" height="10" rx="2" fill="url(#g-warm)" stroke="#7a4a1a" stroke-width="1.5"/>
  <rect x="29" y="20" width="6" height="34" fill="#a85c22"/>
  <path d="M32 20 Q24 14 22 18 Q20 22 28 20 M32 20 Q40 14 42 18 Q44 22 36 20" fill="none" stroke="#a85c22" stroke-width="2.5" stroke-linecap="round"/>
</symbol>

<symbol id="i-pin" viewBox="0 0 64 64">
  <path d="M32 6 Q44 6 44 20 Q44 32 32 56 Q20 32 20 20 Q20 6 32 6 Z" fill="url(#g-warm)" stroke="#a85c22" stroke-width="1.5"/>
  <circle cx="32" cy="20" r="6" fill="#fff5d8"/>
</symbol>

<symbol id="i-mountain" viewBox="0 0 64 64">
  <path d="M4 52 L20 24 L30 38 L40 18 L60 52 Z" fill="url(#g-pine)" stroke="#1a3318" stroke-width="1.2" stroke-linejoin="round"/>
  <path d="M16 36 L20 30 L24 36 Z" fill="#fff5d8"/>
  <path d="M36 24 L40 18 L44 26 Z" fill="#fff5d8"/>
</symbol>

<symbol id="i-tree" viewBox="0 0 64 64">
  <path d="M32 6 L42 22 L36 22 L46 36 L38 36 L50 50 L14 50 L26 36 L18 36 L28 22 L22 22 Z" fill="url(#g-spring)" stroke="#1a3318" stroke-width="1.2" stroke-linejoin="round"/>
  <rect x="28" y="50" width="8" height="8" fill="#7a4a1a"/>
</symbol>

</defs>
</svg>
