<svg xmlns="http://www.w3.org/2000/svg" viewBox="0 0 240 60" role="img" aria-label="Manglisi.vip">
  <defs>
    <linearGradient id="lg-mtn" x1="0" y1="0" x2="0" y2="1">
      <stop offset="0" stop-color="#5a7a52"/>
      <stop offset="1" stop-color="#2d4a2a"/>
    </linearGradient>
    <linearGradient id="lg-sky" x1="0" y1="0" x2="0" y2="1">
      <stop offset="0" stop-color="#f4d28a"/>
      <stop offset="1" stop-color="#e89b5a"/>
    </linearGradient>
  </defs>
  <g>
    <circle cx="32" cy="30" r="26" fill="url(#lg-sky)"/>
    <path d="M6 44 L18 26 L26 36 L36 20 L50 44 Z" fill="url(#lg-mtn)"/>
    <g fill="#2d4a2a">
      <path d="M40 44 L40 30 L36 30 L40 25 L37 25 L41 19 L45 25 L42 25 L46 30 L42 30 L42 44 Z"/>
      <path d="M22 44 L22 34 L19 34 L22 30 L20 30 L23 25 L26 30 L24 30 L27 34 L24 34 L24 44 Z"/>
    </g>
    <circle cx="32" cy="30" r="26" fill="none" stroke="#3d2a1a" stroke-width="2" opacity="0.25"/>
  </g>
  <g font-family="'Georgia', 'Times New Roman', serif" fill="#3d2a1a">
    <text x="68" y="34" font-size="22" font-weight="700" letter-spacing="0.5">Manglisi</text>
    <text x="68" y="50" font-size="11" fill="#8a6a3a" letter-spacing="3">.VIP&#160;&#183;&#160;COTTAGE</text>
  </g>
</svg>
